# xmcd CD database file
#
# Track frame offsets:
#	150
#	14775
#	28105
#	41950
#	55472
#	68850
#	81655
#	95615
#	110017
#	125962
#	139410
#	154850
#	169915
#	183160
#	197665
#	213610
#	227915
#	241590
#	257185
#	271777
#
# Disc length: 3823 seconds
#
# Revision: 5
# Processed by: cddbd v1.5.2PL0 Copyright (c) Steve Scherf et al.
# Submitted via: CDex 1.99.1
#
DISCID=3a0eed14
DTITLE=Bessie Smith - Bessie Smith Empress of the Blues_  The Complete Recordings [Volume 4 Disc 2]
DYEAR=1993
DGENRE=Blues
TTITLE0=He's Got Me Goin'
TTITLE1=It Makes My Love Come Down
TTITLE2=Wasted Life Blues
TTITLE3=Dirty No-Gooder's Blues
TTITLE4=Blue Spirit Blues
TTITLE5=Worn Out Papa Blues
TTITLE6=You Don't Understand
TTITLE7=Don't Cry Baby
TTITLE8=Keep it to Yourself
TTITLE9=New Orleans Hop Scop Blues
TTITLE10=See If I'll Care
TTITLE11=Baby Have Pity on Me
TTITLE12=On Revival Day (A Rhythmic Spiritual)
TTITLE13=Moan, You Moaners
TTITLE14=Hustlin' Dan
TTITLE15=Black Mountain Blues
TTITLE16=In the House Blues
TTITLE17=Long Old Road
TTITLE18=Blue Blues
TTITLE19=Shipwreck Blues
EXTD=YEAR: 1993
EXTT0=
EXTT1=
EXTT2=
EXTT3=
EXTT4=
EXTT5=
EXTT6=
EXTT7=
EXTT8=
EXTT9=
EXTT10=
EXTT11=
EXTT12=
EXTT13=
EXTT14=
EXTT15=
EXTT16=
EXTT17=
EXTT18=
EXTT19=
PLAYORDER=
